<svg version="1.1" id="Layer_1" xmlns="http://www.w3.org/2000/svg" xmlns:xlink="http://www.w3.org/1999/xlink" x="0px" y="0px"
	 width="100%" viewBox="0 0 500 500" enable-background="new 0 0 500 500" xml:space="preserve">
<path fill="#0CB2FF" opacity="1.000000" stroke="none" 
	d="
M345.000000,501.000000 
	C230.000031,501.000000 115.500053,501.000000 1.000062,501.000000 
	C1.000041,334.333405 1.000041,167.666794 1.000021,1.000151 
	C167.666550,1.000101 334.333099,1.000101 500.999756,1.000050 
	C500.999817,167.666519 500.999817,334.333038 500.999908,500.999786 
	C449.166656,501.000000 397.333344,501.000000 345.000000,501.000000 
M129.426422,252.017319 
	C129.441345,257.333710 129.456284,262.650116 128.501541,268.214905 
	C117.416313,268.214905 106.331085,268.214905 95.052483,268.214905 
	C95.052483,286.020996 95.052483,303.255188 94.871162,321.494751 
	C94.932442,332.681152 94.993729,343.867554 94.860992,355.963898 
	C94.831039,361.440002 94.801086,366.916107 93.873230,372.512268 
	C88.349747,372.512268 82.826263,372.512268 77.215340,372.512268 
	C77.215340,378.853119 77.215340,384.428009 77.058334,390.925964 
	C77.109955,396.301453 77.161575,401.676941 77.056999,407.970367 
	C77.056999,413.558929 77.056999,419.147522 77.056999,424.687744 
	C193.337097,424.687744 308.972717,424.687744 424.786804,424.687744 
	C424.786804,418.627960 424.786804,412.840179 424.941223,406.116180 
	C424.941223,400.869354 424.941223,395.622528 424.941223,389.869568 
	C418.772552,389.869568 413.028687,389.869568 407.212769,388.953186 
	C407.212769,366.238525 407.212769,343.523895 407.212769,320.348389 
	C401.168884,320.348389 395.759979,320.348389 389.814209,320.348389 
	C389.814209,314.345856 389.814209,308.796722 389.814209,303.023163 
	C383.784821,303.023163 378.311890,303.023163 372.622375,302.104004 
	C372.622375,279.418030 372.622375,256.732056 372.622375,233.434052 
	C366.357941,233.434052 360.734100,233.434052 355.096558,232.583786 
	C355.096558,227.191208 355.096558,221.798630 355.096558,215.985336 
	C348.973755,215.985336 343.582733,215.985336 337.743256,215.985336 
	C337.743256,204.026199 337.743256,192.501740 337.743256,180.555908 
	C331.643616,180.555908 326.013947,180.555908 320.323334,180.698151 
	C320.323334,180.698151 320.458038,180.621979 320.506439,180.067017 
	C320.370972,179.722778 320.235504,179.378555 320.385803,178.271271 
	C320.385803,167.889832 320.385803,157.508377 320.385803,146.669647 
	C308.492737,146.669647 297.269501,146.669647 285.682617,146.669647 
	C285.682617,134.956482 285.682617,123.711929 285.682617,111.927246 
	C273.880768,111.927246 262.455231,111.927246 251.002838,111.989227 
	C251.002838,111.989227 251.068573,111.973633 251.001862,111.041977 
	C251.001862,105.442436 251.001862,99.842903 251.001862,93.756218 
	C239.037231,93.756218 227.598999,93.756218 216.137299,93.867966 
	C216.137299,93.867966 216.246613,93.834953 216.204208,92.921219 
	C216.204208,87.684486 216.204208,82.447762 216.204208,77.215225 
	C209.930984,77.215225 204.459473,77.215225 198.064133,77.057404 
	C186.849640,77.057404 175.635147,77.057404 164.449387,77.057404 
	C164.449387,82.986427 164.449387,88.344612 164.449387,94.005554 
	C170.238159,94.005554 175.666000,94.005554 181.877441,94.005554 
	C181.877441,99.901009 181.877441,105.487953 181.652405,111.976662 
	C181.747025,117.695244 181.841660,123.413834 181.673859,130.018951 
	C181.416611,135.674561 181.159378,141.330170 179.986847,146.901016 
	C174.778534,146.901016 169.570236,146.901016 163.902649,146.901016 
	C163.902649,158.628174 163.902649,169.665314 162.981262,180.774384 
	C157.750366,180.774384 152.519455,180.774384 147.094421,180.774384 
	C147.094421,186.854324 147.094421,192.423187 146.927109,198.914917 
	C146.927750,204.592010 146.928391,210.269119 146.013199,216.102676 
	C140.636185,216.102676 135.259171,216.102676 129.715164,216.102676 
	C129.715164,222.383209 129.715164,228.084244 129.407684,234.708786 
	C129.492493,240.182297 129.577286,245.655823 129.426422,252.017319 
z"/>
<path fill="#FFDD02" opacity="1.000000" stroke="none" 
	d="
M129.715164,233.785278 
	C129.715164,228.084244 129.715164,222.383209 129.715164,216.102676 
	C135.259171,216.102676 140.636185,216.102676 146.941071,216.070526 
	C152.790024,216.038361 157.711105,216.038361 162.750336,216.038361 
	C162.750336,209.719284 162.750336,204.155914 162.750336,197.992065 
	C157.321075,197.992065 152.207748,197.992065 147.094421,197.992065 
	C147.094421,192.423187 147.094421,186.854324 147.094421,180.774384 
	C152.519455,180.774384 157.750366,180.774384 163.902985,180.819138 
	C168.793472,180.884537 172.772430,180.737625 176.727844,180.978104 
	C179.975449,181.175552 181.049240,180.021774 180.989090,176.753555 
	C180.806519,166.833786 180.910034,156.908752 180.902145,146.985779 
	C181.159378,141.330170 181.416611,135.674561 182.278076,129.571960 
	C187.798676,129.124969 192.715073,129.124969 197.629272,129.124969 
	C197.629272,122.673012 197.629272,117.104492 197.629272,111.074890 
	C192.135117,111.074890 187.006287,111.074890 181.877441,111.074890 
	C181.877441,105.487953 181.877441,99.901009 181.877441,94.005554 
	C175.666000,94.005554 170.238159,94.005554 164.449387,94.005554 
	C164.449387,88.344612 164.449387,82.986427 164.449387,77.057404 
	C175.635147,77.057404 186.849640,77.057404 198.527771,77.590515 
	C198.994431,82.082428 199.132782,86.047279 198.956009,89.998024 
	C198.823868,92.951454 199.806335,94.202301 202.893982,94.040321 
	C207.336212,93.807281 211.794937,93.888100 216.246613,93.834953 
	C216.246613,93.834953 216.137299,93.867966 216.105957,94.296555 
	C216.054260,98.714645 216.266693,102.722801 215.948715,106.688431 
	C215.624527,110.731529 216.859146,112.231537 221.147858,112.098030 
	C231.113068,111.787804 241.094009,111.983170 251.068573,111.973633 
	C251.068573,111.973633 251.002838,111.989227 251.006226,112.431503 
	C251.006577,113.872475 250.968063,114.872559 251.006683,115.869652 
	C251.166321,119.992638 249.821457,125.559845 251.961823,127.822784 
	C254.022293,130.001251 259.698792,129.009033 263.779633,128.948059 
	C267.035126,128.899414 268.149475,129.971191 268.081055,133.251678 
	C267.900574,141.903366 268.179321,150.565613 267.945496,159.214737 
	C267.846558,162.875107 268.866852,164.215179 272.690613,164.087036 
	C280.671295,163.819595 288.680389,164.282883 296.651978,163.903412 
	C301.507812,163.672241 303.880035,164.771835 303.070221,170.118744 
	C302.675934,172.721909 302.720886,175.481339 303.144836,178.075592 
	C303.320190,179.148468 305.010376,179.973770 306.476471,180.936523 
	C311.446899,180.848267 315.952454,180.735123 320.458038,180.621979 
	C320.458038,180.621979 320.323334,180.698151 320.250854,181.121429 
	C320.084015,198.880981 319.989685,216.217224 319.440643,233.630127 
	C302.663116,233.789825 286.340271,233.872894 269.671570,233.991516 
	C269.120880,234.404175 268.916077,234.781281 268.621948,235.610474 
	C268.388672,246.384384 268.244751,256.706177 267.854126,267.133972 
	C267.398285,267.524078 267.189117,267.808228 266.517700,268.147552 
	C261.373779,268.153931 256.692139,268.105164 251.921494,267.841644 
	C251.667770,267.351013 251.437576,267.150238 251.088837,266.557098 
	C250.969955,255.711700 250.904114,245.333755 250.841370,234.691422 
	C250.559372,234.274612 250.274292,234.122208 249.526886,233.888489 
	C237.732040,233.708771 226.399536,233.610382 215.078979,233.078979 
	C215.097137,228.160858 214.918762,223.665375 215.169235,219.193939 
	C215.361633,215.759598 213.710251,214.235611 210.810898,215.210327 
	C206.576050,216.633972 199.827942,210.925262 198.148224,219.095459 
	C197.294617,223.247452 197.905411,227.700546 197.548004,232.016663 
	C196.488739,232.513306 195.735641,233.010788 194.524719,233.599426 
	C179.715790,233.629562 165.364670,233.568542 150.903976,233.210419 
	C149.479584,233.227448 148.164780,233.541580 146.629486,233.899460 
	C146.408981,233.943207 145.964401,234.010269 145.501953,233.976471 
	C139.931381,233.890198 134.823273,233.837738 129.715164,233.785278 
M250.978271,181.867630 
	C250.985138,183.032120 250.996811,184.196594 250.998093,185.361084 
	C251.012909,198.707214 251.006561,198.520462 264.277130,198.098358 
	C269.098267,197.944992 268.529541,194.692291 267.861053,192.342911 
	C266.782288,188.551636 271.742126,182.439499 264.366974,181.124008 
	C260.011139,180.347061 255.408646,180.952972 250.952652,180.009308 
	C250.952652,174.786377 250.952652,169.563446 250.952652,164.408112 
	C244.853882,164.408112 239.626968,164.408112 234.270691,164.408112 
	C234.270691,169.982147 234.270691,175.180496 234.270691,180.916290 
	C240.067368,180.916290 245.501816,180.916290 250.978271,181.867630 
z"/>
<path fill="#FD1B02" opacity="1.000000" stroke="none" 
	d="
M250.838257,234.955826 
	C250.904114,245.333755 250.969955,255.711700 251.084595,266.829376 
	C251.425751,267.731537 251.718124,267.893951 252.010498,268.056396 
	C256.692139,268.105164 261.373779,268.153931 266.819977,268.124756 
	C267.756653,267.707214 267.928741,267.367615 268.100830,267.027985 
	C268.244751,256.706177 268.388672,246.384384 268.894958,235.470306 
	C269.510681,234.570663 269.764069,234.263306 270.017456,233.955963 
	C286.340271,233.872894 302.663116,233.789825 319.908081,233.728851 
	C331.884460,233.828262 342.938690,233.905594 354.074829,234.146637 
	C354.410522,234.215683 354.664276,234.121002 354.975403,233.881287 
	C355.032776,233.736237 355.110260,233.434052 355.110260,233.434052 
	C360.734100,233.434052 366.357941,233.434052 372.622375,233.434052 
	C372.622375,256.732056 372.622375,279.418030 372.702362,303.032532 
	C372.743286,315.219452 372.704224,326.477844 372.226685,337.796814 
	C360.198517,337.928253 348.608856,337.999115 336.551758,338.015686 
	C325.049835,337.997437 314.015442,338.033478 302.517151,338.006592 
	C290.949158,337.943726 279.845032,337.943726 268.053253,337.943726 
	C268.053253,325.877899 268.053253,314.429474 268.099426,302.516113 
	C268.145569,296.806885 268.145569,291.562592 268.145569,286.284668 
	C262.074554,286.284668 256.714996,286.284668 251.168564,286.284668 
	C251.168564,292.140503 251.168564,297.593933 251.106079,303.509216 
	C251.043610,315.168945 251.043610,326.366821 251.043610,338.094940 
	C238.853531,338.094940 227.441742,338.094940 215.563263,338.034271 
	C209.723297,338.008026 204.350021,338.042450 198.513336,338.012390 
	C181.122467,337.947906 164.195023,337.947906 146.659851,337.947906 
	C146.659851,320.185577 146.659851,303.140869 146.659851,286.240417 
	C134.809875,286.240417 123.579002,286.240417 112.044891,286.240417 
	C112.044891,296.278992 112.089882,305.920532 112.003494,315.560944 
	C111.987907,317.300354 111.432259,319.034973 110.656456,320.679932 
	C105.142136,320.555206 100.097313,320.522308 95.052483,320.489410 
	C95.052483,303.255188 95.052483,286.020996 95.052483,268.214905 
	C106.331085,268.214905 117.416313,268.214905 129.408340,268.201202 
	C135.698700,268.187500 141.082275,268.187500 147.086380,268.187500 
	C147.086380,256.700775 147.086380,245.837128 147.293488,234.863953 
	C147.751022,234.549286 147.919891,234.290817 148.382019,233.904953 
	C149.509094,233.723068 150.261337,233.615295 151.013565,233.507507 
	C165.364670,233.568542 179.715790,233.629562 194.906235,233.701508 
	C196.524673,233.645538 197.303772,233.578644 198.311523,233.617188 
	C198.687775,233.802567 198.835358,233.882523 199.271942,234.265015 
	C204.379623,234.367081 209.198318,234.166611 214.275986,233.844467 
	C214.712326,233.652542 214.889664,233.582275 215.067017,233.511993 
	C226.399536,233.610382 237.732040,233.708771 249.614792,234.095154 
	C250.323593,234.651428 250.548004,234.842316 250.838257,234.955826 
M199.356064,321.186188 
	C199.923172,321.450867 200.489075,321.943329 201.057556,321.946350 
	C210.771835,321.997955 220.486862,322.028534 230.200409,321.932861 
	C231.182663,321.923157 232.156616,321.071381 233.267639,320.331482 
	C233.406845,320.158600 233.587357,320.071686 234.471970,319.520844 
	C234.643738,318.892548 234.964706,318.264465 234.965637,317.635925 
	C234.996613,296.594574 235.018051,275.553101 234.944702,254.511963 
	C234.940720,253.371872 234.106262,252.234650 232.764633,251.054077 
	C221.466431,251.091324 210.168228,251.128555 197.953598,251.081085 
	C186.742706,251.081085 175.531815,251.081085 164.351990,251.081085 
	C164.351990,274.470337 164.351990,297.162109 164.351990,320.136261 
	C176.030899,320.136261 187.446991,320.136261 199.146179,320.200867 
	C199.146179,320.200867 199.122849,320.490295 199.356064,321.186188 
M355.102936,319.280609 
	C355.102936,296.679352 355.102936,274.078094 355.102936,251.176529 
	C343.270569,251.176529 331.834900,251.176529 319.419250,251.037613 
	C308.332214,251.037613 297.245178,251.037613 286.183472,251.037613 
	C286.183472,274.435150 286.183472,297.159973 286.183472,320.171844 
	C297.797241,320.171844 309.080475,320.171844 320.565643,320.264954 
	C320.565643,320.264954 320.854462,320.597656 321.373016,321.323334 
	C332.065277,321.524902 342.757263,321.750824 353.450470,321.855347 
	C353.980133,321.860504 354.520111,320.808044 355.102936,319.280609 
z"/>
<path fill="#FFDD02" opacity="1.000000" stroke="none" 
	d="
M111.125946,320.771790 
	C111.432259,319.034973 111.987907,317.300354 112.003494,315.560944 
	C112.089882,305.920532 112.044891,296.278992 112.044891,286.240417 
	C123.579002,286.240417 134.809875,286.240417 146.659851,286.240417 
	C146.659851,303.140869 146.659851,320.185577 146.659851,337.947906 
	C164.195023,337.947906 181.122467,337.947906 198.522705,338.474152 
	C199.022568,344.382874 199.049652,349.765320 199.022888,355.603058 
	C199.014709,361.577179 199.060394,367.096008 199.310272,372.987335 
	C203.255051,373.573639 207.000687,374.014709 210.734650,373.931610 
	C213.892532,373.861298 215.241394,374.813232 215.051422,378.133789 
	C214.825821,382.076874 214.999405,386.042755 214.531342,389.999207 
	C174.366394,389.997314 134.670105,389.994995 94.977829,389.524963 
	C94.911613,383.502228 94.841370,377.947235 94.771133,372.392212 
	C94.801086,366.916107 94.831039,361.440002 95.422150,355.505493 
	C100.897118,355.047089 105.810944,355.047089 111.125954,355.047089 
	C111.125954,343.034363 111.125954,331.903076 111.125946,320.771790 
M115.736725,372.974457 
	C119.053955,372.972565 122.395012,373.196045 125.675774,372.849182 
	C126.858955,372.724091 128.775360,371.299377 128.850937,370.348053 
	C129.191315,366.063568 129.037521,361.735077 128.939178,357.425262 
	C128.922928,356.713623 128.312515,355.412994 127.948334,355.402863 
	C122.998772,355.265137 116.803352,353.551208 113.500862,355.884949 
	C111.053757,357.614258 112.160866,364.662415 112.144165,369.342804 
	C112.139870,370.546478 113.870300,371.756317 115.736725,372.974457 
M128.885086,310.538452 
	C128.888077,312.695923 128.572845,314.921936 129.016968,316.984436 
	C129.271164,318.164917 130.702209,319.902130 131.703201,319.972687 
	C136.265228,320.294281 140.862671,320.113831 145.542221,320.113831 
	C145.542221,314.056396 145.542221,308.711304 145.542221,303.373535 
	C139.874298,303.373535 134.646179,303.373535 128.884796,303.373535 
	C128.884796,305.672974 128.884796,307.623169 128.885086,310.538452 
z"/>
<path fill="#DD8904" opacity="1.000000" stroke="none" 
	d="
M424.786804,407.052368 
	C424.786804,412.840179 424.786804,418.627960 424.786804,424.687744 
	C308.972717,424.687744 193.337097,424.687744 77.056999,424.687744 
	C77.056999,419.147522 77.056999,413.558929 77.589836,407.502655 
	C193.677383,407.040741 309.232086,407.046539 424.786804,407.052368 
z"/>
<path fill="#FFC80F" opacity="1.000000" stroke="none" 
	d="
M424.864014,406.584290 
	C309.232086,407.046539 193.677383,407.040741 77.667931,407.043701 
	C77.161575,401.676941 77.109955,396.301453 77.590843,390.463776 
	C83.740173,389.998596 89.356995,389.995636 94.973816,389.992676 
	C134.670105,389.994995 174.366394,389.997314 214.853149,389.973969 
	C215.857773,389.927002 216.071915,389.905701 216.736084,389.897247 
	C245.460159,389.871521 273.734222,389.832947 302.227112,389.875519 
	C302.445892,389.956635 302.912628,389.961639 303.386658,389.971527 
	C320.910675,389.985565 337.960632,389.989716 355.477112,389.995667 
	C361.286987,389.995850 366.630310,389.994232 372.443237,389.994873 
	C378.608978,389.996460 384.305084,389.995789 390.469238,389.996643 
	C396.386475,389.955292 401.835663,389.912445 407.284851,389.869568 
	C413.028687,389.869568 418.772552,389.869568 424.941223,389.869568 
	C424.941223,395.622528 424.941223,400.869354 424.864014,406.584290 
z"/>
<path fill="#EEB201" opacity="1.000000" stroke="none" 
	d="
M306.011627,180.911652 
	C305.010376,179.973770 303.320190,179.148468 303.144836,178.075592 
	C302.720886,175.481339 302.675934,172.721909 303.070221,170.118744 
	C303.880035,164.771835 301.507812,163.672241 296.651978,163.903412 
	C288.680389,164.282883 280.671295,163.819595 272.690613,164.087036 
	C268.866852,164.215179 267.846558,162.875107 267.945496,159.214737 
	C268.179321,150.565613 267.900574,141.903366 268.081055,133.251678 
	C268.149475,129.971191 267.035126,128.899414 263.779633,128.948059 
	C259.698792,129.009033 254.022293,130.001251 251.961823,127.822784 
	C249.821457,125.559845 251.166321,119.992638 251.006683,115.869652 
	C250.968063,114.872559 251.006577,113.872475 251.019653,112.400513 
	C262.455231,111.927246 273.880768,111.927246 285.682617,111.927246 
	C285.682617,123.711929 285.682617,134.956482 285.682617,146.669647 
	C297.269501,146.669647 308.492737,146.669647 320.385803,146.669647 
	C320.385803,157.508377 320.385803,167.889832 319.772400,178.642670 
	C316.058533,179.009567 312.941681,178.818039 309.865295,179.087784 
	C308.537628,179.204178 307.293640,180.274612 306.011627,180.911652 
z"/>
<path fill="#EEB201" opacity="1.000000" stroke="none" 
	d="
M407.248810,389.411377 
	C401.835663,389.912445 396.386475,389.955292 390.468384,389.528503 
	C389.999237,375.402222 389.998932,361.745514 389.998779,348.088837 
	C389.998688,337.994751 389.998718,338.011658 380.144348,337.982117 
	C377.651062,337.974609 375.158234,337.822083 372.665192,337.736206 
	C372.704224,326.477844 372.743286,315.219452 372.810669,303.492126 
	C378.311890,303.023163 383.784821,303.023163 389.814209,303.023163 
	C389.814209,308.796722 389.814209,314.345856 389.814209,320.348389 
	C395.759979,320.348389 401.168884,320.348389 407.212769,320.348389 
	C407.212769,343.523895 407.212769,366.238525 407.248810,389.411377 
z"/>
<path fill="#EEB102" opacity="1.000000" stroke="none" 
	d="
M353.992889,233.982910 
	C342.938690,233.905594 331.884460,233.828262 320.362793,233.652206 
	C319.989685,216.217224 320.084015,198.880981 320.281311,181.050323 
	C326.013947,180.555908 331.643616,180.555908 337.743256,180.555908 
	C337.743256,192.501740 337.743256,204.026199 337.743256,215.985336 
	C343.582733,215.985336 348.973755,215.985336 355.096558,215.985336 
	C355.096558,221.798630 355.096558,227.191208 355.103394,233.008911 
	C355.110260,233.434052 355.032776,233.736237 354.746155,233.833313 
	C354.459503,233.930405 353.992889,233.982925 353.992889,233.982910 
z"/>
<path fill="#EFB300" opacity="1.000000" stroke="none" 
	d="
M251.035217,111.507805 
	C241.094009,111.983170 231.113068,111.787804 221.147858,112.098030 
	C216.859146,112.231537 215.624527,110.731529 215.948715,106.688431 
	C216.266693,102.722801 216.054260,98.714645 216.117691,94.240685 
	C227.598999,93.756218 239.037231,93.756218 251.001862,93.756218 
	C251.001862,99.842903 251.001862,105.442436 251.035217,111.507805 
z"/>
<path fill="#FFEC69" opacity="1.000000" stroke="none" 
	d="
M180.444489,146.943390 
	C180.910034,156.908752 180.806519,166.833786 180.989090,176.753555 
	C181.049240,180.021774 179.975449,181.175552 176.727844,180.978104 
	C172.772430,180.737625 168.793472,180.884537 164.363678,180.783173 
	C163.902649,169.665314 163.902649,158.628174 163.902649,146.901016 
	C169.570236,146.901016 174.778534,146.901016 180.444489,146.943390 
z"/>
<path fill="#FFEC69" opacity="1.000000" stroke="none" 
	d="
M110.656464,320.679932 
	C111.125954,331.903076 111.125954,343.034363 111.125954,355.047089 
	C105.810944,355.047089 100.897118,355.047089 95.519150,355.050537 
	C94.993729,343.867554 94.932442,332.681152 94.961823,320.992065 
	C100.097313,320.522308 105.142136,320.555206 110.656464,320.679932 
z"/>
<path fill="#FFD203" opacity="1.000000" stroke="none" 
	d="
M147.086380,234.973480 
	C147.086380,245.837128 147.086380,256.700775 147.086380,268.187500 
	C141.082275,268.187500 135.698700,268.187500 129.893188,268.077026 
	C129.456284,262.650116 129.441345,257.333710 129.965530,251.531311 
	C135.526245,251.045319 140.547852,251.045319 145.964401,251.045319 
	C145.964401,244.802505 145.964401,239.406387 145.964401,234.010269 
	C145.964401,234.010269 146.408981,233.943207 146.663116,233.931366 
	C146.917252,233.919540 146.982178,233.983749 146.980896,234.234055 
	C147.015213,234.647385 147.050797,234.810425 147.086380,234.973480 
z"/>
<path fill="#EEB201" opacity="1.000000" stroke="none" 
	d="
M94.977829,389.524963 
	C89.356995,389.995636 83.740173,389.998596 77.669342,390.002258 
	C77.215340,384.428009 77.215340,378.853119 77.215340,372.512268 
	C82.826263,372.512268 88.349747,372.512268 94.322182,372.452240 
	C94.841370,377.947235 94.911613,383.502228 94.977829,389.524963 
z"/>
<path fill="#EEB201" opacity="1.000000" stroke="none" 
	d="
M216.225403,93.378082 
	C211.794937,93.888100 207.336212,93.807281 202.893982,94.040321 
	C199.806335,94.202301 198.823868,92.951454 198.956009,89.998024 
	C199.132782,86.047279 198.994431,82.082428 198.989685,77.669434 
	C204.459473,77.215225 209.930984,77.215225 216.204208,77.215225 
	C216.204208,82.447762 216.204208,87.684486 216.225403,93.378082 
z"/>
<path fill="#EEE76D" opacity="1.000000" stroke="none" 
	d="
M145.501953,233.976471 
	C145.964401,239.406387 145.964401,244.802505 145.964401,251.045319 
	C140.547852,251.045319 135.526245,251.045319 130.083359,251.087326 
	C129.577286,245.655823 129.492493,240.182297 129.561432,234.247040 
	C134.823273,233.837738 139.931381,233.890198 145.501953,233.976471 
z"/>
<path fill="#FFEC69" opacity="1.000000" stroke="none" 
	d="
M147.010773,198.453491 
	C152.207748,197.992065 157.321075,197.992065 162.750336,197.992065 
	C162.750336,204.155914 162.750336,209.719284 162.750336,216.038361 
	C157.711105,216.038361 152.790024,216.038361 147.398987,215.992279 
	C146.928391,210.269119 146.927750,204.592010 147.010773,198.453491 
z"/>
<path fill="#FFEC69" opacity="1.000000" stroke="none" 
	d="
M181.764923,111.525772 
	C187.006287,111.074890 192.135117,111.074890 197.629272,111.074890 
	C197.629272,117.104492 197.629272,122.673012 197.629272,129.124969 
	C192.715073,129.124969 187.798676,129.124969 182.409286,129.128693 
	C181.841660,123.413834 181.747025,117.695244 181.764923,111.525772 
z"/>
<path fill="#EEB102" opacity="1.000000" stroke="none" 
	d="
M306.476471,180.936523 
	C307.293640,180.274612 308.537628,179.204178 309.865295,179.087784 
	C312.941681,178.818039 316.058533,179.009567 319.629517,179.024200 
	C320.235504,179.378555 320.370972,179.722778 320.482239,180.344498 
	C315.952454,180.735123 311.446899,180.848267 306.476471,180.936523 
z"/>
<path fill="#FFEC69" opacity="1.000000" stroke="none" 
	d="
M198.982941,233.962494 
	C198.835358,233.882523 198.687775,233.802567 198.296570,233.365448 
	C197.986710,232.678024 197.920456,232.347778 197.854202,232.017517 
	C197.905411,227.700546 197.294617,223.247452 198.148224,219.095459 
	C199.827942,210.925262 206.576050,216.633972 210.810898,215.210327 
	C213.710251,214.235611 215.361633,215.759598 215.169235,219.193939 
	C214.918762,223.665375 215.097137,228.160858 215.078979,233.078979 
	C214.889664,233.582275 214.712326,233.652542 213.813324,233.769012 
	C208.388779,233.864319 203.685852,233.913406 198.982941,233.962494 
z"/>
<path fill="#FFEC69" opacity="1.000000" stroke="none" 
	d="
M250.936249,180.916290 
	C245.501816,180.916290 240.067368,180.916290 234.270691,180.916290 
	C234.270691,175.180496 234.270691,169.982147 234.270691,164.408112 
	C239.626968,164.408112 244.853882,164.408112 250.952652,164.408112 
	C250.952652,169.563446 250.952652,174.786377 250.976257,180.503098 
	C250.999878,180.996887 250.936249,180.916290 250.936249,180.916290 
z"/>
<path fill="#EFB300" opacity="1.000000" stroke="none" 
	d="
M250.958466,180.966949 
	C255.408646,180.952972 260.011139,180.347061 264.366974,181.124008 
	C271.742126,182.439499 266.782288,188.551636 267.861053,192.342911 
	C268.529541,194.692291 269.098267,197.944992 264.277130,198.098358 
	C251.006561,198.520462 251.012909,198.707214 250.998093,185.361084 
	C250.996811,184.196594 250.985138,183.032120 250.957260,181.391968 
	C250.936249,180.916290 250.999878,180.996887 250.958466,180.966949 
z"/>
<path fill="#FFD203" opacity="1.000000" stroke="none" 
	d="
M150.903976,233.210419 
	C150.261337,233.615295 149.509094,233.723068 148.125580,233.863815 
	C147.323563,233.925766 147.152863,233.954758 146.982178,233.983749 
	C146.982178,233.983749 146.917252,233.919540 146.883606,233.887634 
	C148.164780,233.541580 149.479584,233.227448 150.903976,233.210419 
z"/>
<path fill="#FFD203" opacity="1.000000" stroke="none" 
	d="
M197.548004,232.016663 
	C197.920456,232.347778 197.986710,232.678024 198.067917,233.260025 
	C197.303772,233.578644 196.524673,233.645538 195.364075,233.610352 
	C195.735641,233.010788 196.488739,232.513306 197.548004,232.016663 
z"/>
<path fill="#FF0800" opacity="1.000000" stroke="none" 
	d="
M250.841354,234.691422 
	C250.548004,234.842316 250.323593,234.651428 250.077118,234.176468 
	C250.274292,234.122208 250.559372,234.274612 250.841354,234.691422 
z"/>
<path fill="#FFDD02" opacity="1.000000" stroke="none" 
	d="
M251.921494,267.841644 
	C251.718124,267.893951 251.425751,267.731537 251.137634,267.296844 
	C251.437576,267.150238 251.667770,267.351013 251.921494,267.841644 
z"/>
<path fill="#FFDD02" opacity="1.000000" stroke="none" 
	d="
M267.854126,267.133972 
	C267.928741,267.367615 267.756653,267.707214 267.282227,268.069641 
	C267.189117,267.808228 267.398285,267.524078 267.854126,267.133972 
z"/>
<path fill="#FF0800" opacity="1.000000" stroke="none" 
	d="
M269.671570,233.991516 
	C269.764069,234.263306 269.510681,234.570663 268.984283,235.018219 
	C268.916077,234.781281 269.120880,234.404175 269.671570,233.991516 
z"/>
<path fill="#FFDD02" opacity="1.000000" stroke="none" 
	d="
M372.226685,337.796814 
	C375.158234,337.822083 377.651062,337.974609 380.144348,337.982117 
	C389.998718,338.011658 389.998688,337.994751 389.998779,348.088837 
	C389.998932,361.745514 389.999237,375.402222 390.000336,389.527008 
	C384.305084,389.995789 378.608978,389.996460 372.447205,389.527618 
	C371.981537,384.924927 371.860596,380.787292 372.011719,376.659637 
	C372.205780,371.360382 368.021027,372.558258 365.812439,373.201294 
	C362.212860,374.249268 356.181580,369.042877 355.120728,376.617950 
	C354.507599,380.995880 355.010162,385.530060 355.010590,389.993896 
	C337.960632,389.989716 320.910675,389.985565 303.429504,389.729553 
	C302.998260,389.477692 302.858215,389.006439 302.942871,388.545624 
	C302.991211,383.027039 302.954865,377.969238 303.379639,372.802490 
	C309.252197,372.693481 314.663635,372.693481 320.401184,372.693481 
	C320.401184,366.440277 320.401184,360.840179 320.902618,355.176392 
	C325.185211,355.077087 328.974640,354.873169 332.744995,355.057922 
	C335.893311,355.212219 337.228760,354.214142 337.054138,350.893158 
	C336.830017,346.629944 337.012146,342.345367 337.019226,338.069946 
	C348.608856,337.999115 360.198517,337.928253 372.226685,337.796814 
z"/>
<path fill="#FFFDFC" opacity="1.000000" stroke="none" 
	d="
M233.809204,320.070740 
	C233.587357,320.071686 233.406845,320.158600 232.751190,320.414551 
	C221.197449,320.495178 210.160141,320.492737 199.122849,320.490295 
	C199.122849,320.490295 199.146179,320.200867 199.017136,319.688538 
	C198.882065,296.506104 198.876038,273.835938 198.870026,251.165802 
	C210.168228,251.128555 221.466431,251.091324 233.249924,251.535797 
	C233.759888,274.701935 233.784546,297.386322 233.809204,320.070740 
z"/>
<path fill="#FCFCFC" opacity="1.000000" stroke="none" 
	d="
M320.399200,251.176529 
	C331.834900,251.176529 343.270569,251.176529 355.102936,251.176529 
	C355.102936,274.078094 355.102936,296.679352 354.613251,319.848938 
	C343.033875,320.477386 331.944153,320.537537 320.854462,320.597656 
	C320.854462,320.597656 320.565643,320.264954 320.466797,319.742950 
	C320.378387,296.539490 320.388794,273.858002 320.399200,251.176529 
z"/>
<path fill="#020201" opacity="1.000000" stroke="none" 
	d="
M198.411804,251.123444 
	C198.876038,273.835938 198.882065,296.506104 198.875580,319.656250 
	C187.446991,320.136261 176.030899,320.136261 164.351990,320.136261 
	C164.351990,297.162109 164.351990,274.470337 164.351990,251.081085 
	C175.531815,251.081085 186.742706,251.081085 198.411804,251.123444 
z"/>
<path fill="#000100" opacity="1.000000" stroke="none" 
	d="
M319.909241,251.107071 
	C320.388794,273.858002 320.378387,296.539490 320.365845,319.696411 
	C309.080475,320.171844 297.797241,320.171844 286.183472,320.171844 
	C286.183472,297.159973 286.183472,274.435150 286.183472,251.037613 
	C297.245178,251.037613 308.332214,251.037613 319.909241,251.107071 
z"/>
<path fill="#FFDD02" opacity="1.000000" stroke="none" 
	d="
M268.053253,302.981079 
	C268.053253,314.429474 268.053253,325.877899 268.053253,337.943726 
	C279.845032,337.943726 290.949158,337.943726 302.526703,338.468994 
	C303.071869,344.375000 303.143585,349.755768 303.192932,355.181274 
	C303.170532,355.226013 303.073212,355.249481 302.813416,355.192383 
	C302.380798,355.175110 302.207947,355.214905 301.568268,355.191528 
	C278.745483,355.178040 256.389496,355.227814 233.570038,355.196411 
	C227.472244,355.159119 221.837906,355.202942 216.099731,355.251434 
	C215.995926,355.256104 215.918961,355.063080 215.946808,354.592346 
	C215.993073,348.779388 216.011520,343.437164 216.029968,338.094940 
	C227.441742,338.094940 238.853531,338.094940 251.043610,338.094940 
	C251.043610,326.366821 251.043610,315.168945 251.560760,303.495239 
	C257.403046,303.006622 262.728149,302.993835 268.053253,302.981079 
z"/>
<path fill="#EEB201" opacity="1.000000" stroke="none" 
	d="
M303.215332,355.136536 
	C303.143585,349.755768 303.071869,344.375000 302.990601,338.531860 
	C314.015442,338.033478 325.049835,337.997437 336.551758,338.015686 
	C337.012146,342.345367 336.830017,346.629944 337.054138,350.893158 
	C337.228760,354.214142 335.893311,355.212219 332.744995,355.057922 
	C328.974640,354.873169 325.185211,355.077087 320.478729,355.123840 
	C314.107391,355.135529 308.661346,355.136017 303.215332,355.136536 
z"/>
<path fill="#EFB300" opacity="1.000000" stroke="none" 
	d="
M215.563263,338.034271 
	C216.011520,343.437164 215.993073,348.779388 215.487137,354.605164 
	C209.692001,355.108429 204.384369,355.128113 199.076736,355.147827 
	C199.049652,349.765320 199.022568,344.382874 198.986115,338.538635 
	C204.350021,338.042450 209.723297,338.008026 215.563263,338.034271 
z"/>
<path fill="#EFB300" opacity="1.000000" stroke="none" 
	d="
M268.099426,302.516144 
	C262.728149,302.993835 257.403046,303.006622 251.623245,303.033386 
	C251.168564,297.593933 251.168564,292.140503 251.168564,286.284668 
	C256.714996,286.284668 262.074554,286.284668 268.145569,286.284668 
	C268.145569,291.562592 268.145569,296.806885 268.099426,302.516144 
z"/>
<path fill="#FF0800" opacity="1.000000" stroke="none" 
	d="
M234.140594,319.795776 
	C233.784546,297.386322 233.759888,274.701935 233.696808,251.556808 
	C234.106262,252.234650 234.940720,253.371872 234.944702,254.511963 
	C235.018051,275.553101 234.996613,296.594574 234.965637,317.635925 
	C234.964706,318.264465 234.643738,318.892548 234.140594,319.795776 
z"/>
<path fill="#FF0800" opacity="1.000000" stroke="none" 
	d="
M321.113739,320.960510 
	C331.944153,320.537537 343.033875,320.477386 354.589417,320.332642 
	C354.520111,320.808044 353.980133,321.860504 353.450470,321.855347 
	C342.757263,321.750824 332.065277,321.524902 321.113739,320.960510 
z"/>
<path fill="#FF0800" opacity="1.000000" stroke="none" 
	d="
M199.239456,320.838257 
	C210.160141,320.492737 221.197449,320.495178 232.684586,320.553986 
	C232.156616,321.071381 231.182663,321.923157 230.200409,321.932861 
	C220.486862,322.028534 210.771835,321.997955 201.057556,321.946350 
	C200.489075,321.943329 199.923172,321.450867 199.239456,320.838257 
z"/>
<path fill="#FF0800" opacity="1.000000" stroke="none" 
	d="
M199.271942,234.265030 
	C203.685852,233.913406 208.388779,233.864319 213.554352,233.890686 
	C209.198318,234.166611 204.379623,234.367081 199.271942,234.265030 
z"/>
<path fill="#FF0800" opacity="1.000000" stroke="none" 
	d="
M354.074829,234.146637 
	C353.992889,233.982925 354.459503,233.930405 354.688782,233.978363 
	C354.664276,234.121002 354.410522,234.215683 354.074829,234.146637 
z"/>
<path fill="#FF0800" opacity="1.000000" stroke="none" 
	d="
M146.980896,234.234055 
	C147.152863,233.954758 147.323563,233.925766 147.750732,233.937912 
	C147.919891,234.290817 147.751022,234.549286 147.293488,234.863953 
	C147.050797,234.810425 147.015213,234.647385 146.980896,234.234055 
z"/>
<path fill="#0E0B00" opacity="1.000000" stroke="none" 
	d="
M199.022888,355.603088 
	C204.384369,355.128113 209.692001,355.108429 215.459290,355.075928 
	C215.918961,355.063080 215.995926,355.256104 216.090240,355.700867 
	C216.263382,361.105988 216.342194,366.066376 216.379425,371.350433 
	C216.513382,371.802612 216.688904,371.931152 216.710236,372.355896 
	C216.367081,372.769928 216.178162,372.887726 215.981598,372.969971 
	C215.973938,372.934387 216.024078,372.881683 215.564056,372.781494 
	C209.771393,372.659180 204.438721,372.637024 199.106064,372.614868 
	C199.060394,367.096008 199.014709,361.577179 199.022888,355.603088 
z"/>
<path fill="#EFB300" opacity="1.000000" stroke="none" 
	d="
M115.270264,372.968872 
	C113.870300,371.756317 112.139870,370.546478 112.144165,369.342804 
	C112.160866,364.662415 111.053757,357.614258 113.500862,355.884949 
	C116.803352,353.551208 122.998772,355.265137 127.948334,355.402863 
	C128.312515,355.412994 128.922928,356.713623 128.939178,357.425262 
	C129.037521,361.735077 129.191315,366.063568 128.850937,370.348053 
	C128.775360,371.299377 126.858955,372.724091 125.675774,372.849182 
	C122.395012,373.196045 119.053955,372.972565 115.270264,372.968872 
z"/>
<path fill="#FFEC69" opacity="1.000000" stroke="none" 
	d="
M128.884949,310.055908 
	C128.884796,307.623169 128.884796,305.672974 128.884796,303.373535 
	C134.646179,303.373535 139.874298,303.373535 145.542221,303.373535 
	C145.542221,308.711304 145.542221,314.056396 145.542221,320.113831 
	C140.862671,320.113831 136.265228,320.294281 131.703201,319.972687 
	C130.702209,319.902130 129.271164,318.164917 129.016968,316.984436 
	C128.572845,314.921936 128.888077,312.695923 128.884949,310.055908 
z"/>
<path fill="#FFDD02" opacity="1.000000" stroke="none" 
	d="
M199.310272,372.987305 
	C204.438721,372.637024 209.771393,372.659180 215.625244,373.254395 
	C216.192978,379.179779 216.239517,384.532074 216.286041,389.884399 
	C216.071915,389.905701 215.857773,389.927002 215.321808,389.973511 
	C214.999405,386.042755 214.825821,382.076874 215.051422,378.133789 
	C215.241394,374.813232 213.892532,373.861298 210.734650,373.931610 
	C207.000687,374.014709 203.255051,373.573639 199.310272,372.987305 
z"/>
<path fill="#000100" opacity="1.000000" stroke="none" 
	d="
M216.736069,389.897247 
	C216.239517,384.532074 216.192978,379.179779 216.085266,373.354553 
	C216.024078,372.881683 215.973938,372.934387 216.165314,372.706238 
	C216.513504,372.332062 216.670303,372.186035 217.084259,372.231537 
	C217.547028,372.364441 217.752594,372.305847 218.403687,372.401733 
	C223.922821,372.470215 228.996460,372.384216 234.514709,372.435181 
	C247.548111,372.583923 260.137177,372.550964 272.725647,372.621582 
	C282.809479,372.678162 292.892578,372.860596 302.972626,372.959839 
	C302.969238,372.932556 302.918549,372.911469 302.918549,372.911469 
	C302.954865,377.969238 302.991211,383.027039 302.763855,388.632690 
	C302.272705,389.334290 302.108765,389.538879 302.008301,389.794373 
	C273.734222,389.832947 245.460159,389.871521 216.736069,389.897247 
z"/>
<path fill="#EFB300" opacity="1.000000" stroke="none" 
	d="
M355.477112,389.995667 
	C355.010162,385.530060 354.507599,380.995880 355.120728,376.617950 
	C356.181580,369.042877 362.212860,374.249268 365.812439,373.201294 
	C368.021027,372.558258 372.205780,371.360382 372.011719,376.659637 
	C371.860596,380.787292 371.981537,384.924927 371.977600,389.525360 
	C366.630310,389.994232 361.286987,389.995850 355.477112,389.995667 
z"/>
<path fill="#0E0B00" opacity="1.000000" stroke="none" 
	d="
M302.227112,389.875488 
	C302.108765,389.538879 302.272705,389.334290 302.679199,389.093506 
	C302.858215,389.006439 302.998260,389.477692 302.955444,389.719666 
	C302.912628,389.961639 302.445892,389.956635 302.227112,389.875488 
z"/>
<path fill="#0E0B00" opacity="1.000000" stroke="none" 
	d="
M303.192932,355.181274 
	C308.661346,355.136017 314.107391,355.135529 319.977295,355.187561 
	C320.401184,360.840179 320.401184,366.440277 320.401184,372.693481 
	C314.663635,372.693481 309.252197,372.693481 303.379639,372.802490 
	C302.918549,372.911469 302.969238,372.932556 302.953461,372.493347 
	C302.918579,366.707947 302.899475,361.361725 302.978394,355.836548 
	C303.076416,355.657593 303.073212,355.249481 303.073212,355.249481 
	C303.073212,355.249481 303.170532,355.226013 303.192932,355.181274 
z"/>
<path fill="#FFFFFF" opacity="1.000000" stroke="none" 
	d="
M302.880371,356.015533 
	C302.899475,361.361725 302.918579,366.707947 302.956848,372.520630 
	C292.892578,372.860596 282.809479,372.678162 272.725647,372.621582 
	C260.137177,372.550964 247.548111,372.583923 234.481812,372.013977 
	C234.014038,366.063049 234.023758,360.670288 234.033493,355.277557 
	C256.389496,355.227814 278.745483,355.178040 301.665924,355.360352 
	C302.409912,355.790466 302.626587,355.931519 302.880371,356.015533 
z"/>
<path fill="#ECEAE0" opacity="1.000000" stroke="none" 
	d="
M233.570038,355.196411 
	C234.023758,360.670288 234.014038,366.063049 234.037201,371.877014 
	C228.996460,372.384216 223.922821,372.470215 218.326843,372.198730 
	C217.343338,371.569733 216.882172,371.298248 216.420990,371.026794 
	C216.342194,366.066376 216.263382,361.105988 216.194061,355.696167 
	C221.837906,355.202942 227.472244,355.159119 233.570038,355.196411 
z"/>
<path fill="#ECEAE0" opacity="1.000000" stroke="none" 
	d="
M302.978394,355.836548 
	C302.626587,355.931519 302.409912,355.790466 302.132721,355.423553 
	C302.207947,355.214905 302.380798,355.175110 302.813416,355.192383 
	C303.073212,355.249481 303.076416,355.657593 302.978394,355.836548 
z"/>
<path fill="#FFFFFF" opacity="1.000000" stroke="none" 
	d="
M216.379425,371.350464 
	C216.882172,371.298248 217.343338,371.569733 217.881348,372.044250 
	C217.752594,372.305847 217.547028,372.364441 217.083191,372.250732 
	C216.824951,372.078400 216.864441,372.059662 216.864441,372.059662 
	C216.688904,371.931152 216.513382,371.802612 216.379425,371.350464 
z"/>
<path fill="#ECEAE0" opacity="1.000000" stroke="none" 
	d="
M216.710236,372.355896 
	C216.864441,372.059662 216.824951,372.078400 216.826019,372.059204 
	C216.670303,372.186035 216.513504,372.332062 216.172974,372.741821 
	C216.178162,372.887726 216.367081,372.769928 216.710236,372.355896 
z"/>
</svg>