<?xml version="1.0" standalone="no"?>
<!DOCTYPE svg PUBLIC "-//W3C//DTD SVG 20010904//EN"
 "http://www.w3.org/TR/2001/REC-SVG-20010904/DTD/svg10.dtd">
<svg version="1.0" xmlns="http://www.w3.org/2000/svg"
 width="500.000000pt" height="500.000000pt" viewBox="0 0 500.000000 500.000000"
 preserveAspectRatio="xMidYMid meet">

<g transform="translate(0.000000,500.000000) scale(0.100000,-0.100000)"
fill="#000000" stroke="none">
<path d="M3108 2673 l-438 -3 0 -170 0 -170 -85 0 -85 0 0 170 0 170 -520 0
-520 0 0 -170 0 -170 -260 -2 -261 -3 -2 -258 -2 -257 88 0 87 0 0 170 0 170
175 0 175 0 0 -260 0 -260 520 0 520 0 0 260 0 260 85 0 85 0 2 -257 3 -258
520 0 520 0 0 520 0 520 -85 0 c-47 0 -282 -1 -522 -2z m-780 -520 l-3 -348
-172 -3 -173 -2 0 350 0 350 175 0 175 0 -2 -347z m1212 -3 l0 -350 -172 2
-173 3 -3 348 -2 347 175 0 175 0 0 -350z"/>
<path d="M1980 1370 l0 -90 85 0 85 0 0 -85 0 -85 435 0 435 0 0 85 0 84 88 3
87 3 3 88 3 87 -91 0 -90 0 0 -90 0 -90 -432 2 -433 3 -3 88 -3 87 -84 0 -85
0 0 -90z"/>
</g>
</svg>
